<svg xmlns="http://www.w3.org/2000/svg" width="20" height="20" viewBox="0 0 20 20">
  <g id="ic_add_category" transform="translate(-219 -182)">
    <g id="Category" transform="translate(219 182)">
      <path id="Category-2" data-name="Category" d="M13.986,20a2.989,2.989,0,0,1-2.975-3V13.941a2.989,2.989,0,0,1,2.975-3h3.039a2.988,2.988,0,0,1,2.974,3V17a2.988,2.988,0,0,1-2.974,3Zm-1.58-6.059V17a1.593,1.593,0,0,0,1.58,1.6h3.039A1.592,1.592,0,0,0,18.6,17V13.941a1.592,1.592,0,0,0-1.58-1.6H13.986A1.593,1.593,0,0,0,12.406,13.941ZM2.975,20A2.989,2.989,0,0,1,0,17V13.941a2.989,2.989,0,0,1,2.975-3H6.014a2.989,2.989,0,0,1,2.975,3V17a2.989,2.989,0,0,1-2.975,3Zm-1.58-6.059V17a1.593,1.593,0,0,0,1.58,1.6H6.014A1.593,1.593,0,0,0,7.594,17V13.941a1.593,1.593,0,0,0-1.58-1.6H2.975A1.593,1.593,0,0,0,1.395,13.941Zm1.58-4.886A2.989,2.989,0,0,1,0,6.06V3A2.989,2.989,0,0,1,2.975,0H6.014A2.989,2.989,0,0,1,8.989,3V6.06a2.989,2.989,0,0,1-2.975,3ZM1.395,3V6.06a1.593,1.593,0,0,0,1.58,1.6H6.014a1.593,1.593,0,0,0,1.58-1.6V3a1.593,1.593,0,0,0-1.58-1.6H2.975A1.593,1.593,0,0,0,1.395,3Z" fill="#fff"/>
    </g>
    <g id="Group_9535" data-name="Group 9535" transform="translate(-6.909 24.114)">
      <path id="Line_185" d="M.766,0a.768.768,0,0,1,.759.668l.007.1V8.318a.765.765,0,0,1-1.524.1L0,8.318V.772A.769.769,0,0,1,.766,0Z" transform="translate(240.634 157.886)" fill="#fff"/>
      <path id="Line_186" d="M8.251,0a.773.773,0,0,1,.1,1.538l-.1.007H.766A.773.773,0,0,1,.662.007L.766,0Z" transform="translate(236.892 161.659)" fill="#fff"/>
    </g>
  </g>
</svg>
