<svg xmlns="http://www.w3.org/2000/svg" width="138.629" height="162.656" viewBox="0 0 138.629 162.656">
  <g id="ic_chef_a" transform="translate(-117.998 -82.367)">
    <g id="Group_9507" data-name="Group 9507" transform="translate(22.751 -197.677)">
      <path id="chef" d="M100.757,23.212a23.546,23.546,0,0,0-9.521,2.017,28.826,28.826,0,0,0-42.281,0A23.444,23.444,0,1,0,33.5,69.336l5.946,35.174v17.881a1.8,1.8,0,0,0,1.8,1.8h57.7a1.8,1.8,0,0,0,1.8-1.8V104.51L106.7,69.336a23.445,23.445,0,0,0-5.946-46.123Zm-3.606,97.375h-54.1V106.162h54.1Zm7.612-54.5a1.8,1.8,0,0,0-1.416,1.465l-5.917,35H86.465L88.13,79.242h0c0-.043.007-.085.007-.128a1.8,1.8,0,0,0-3.6-.128h0l-1.684,23.57H71.906V82.72a1.8,1.8,0,1,0-3.606,0v19.836H57.355L55.672,78.985h0a1.8,1.8,0,0,0-3.6.128c0,.043,0,.086.007.128h0l1.665,23.314H42.774l-5.917-35a1.8,1.8,0,0,0-1.416-1.465A19.838,19.838,0,1,1,59.283,46.655a1.8,1.8,0,1,0,3.606,0A23.441,23.441,0,0,0,52.236,27.018a25.249,25.249,0,0,1,42.2,11.1,1.8,1.8,0,1,0,3.476-.959,28.611,28.611,0,0,0-4.3-9.015,19.636,19.636,0,0,1,7.142-1.325,19.838,19.838,0,0,1,4.006,39.267Z" transform="translate(94.243 264.045)" fill="#fff"/>
    </g>
    <g id="Foody" transform="translate(-275.292 -245.646)">
      <g id="Group_9531" data-name="Group 9531" transform="translate(394.293 447.717)">
        <path id="Path_304" data-name="Path 304" d="M429.228,449.739a.331.331,0,0,1,.127.255q0,.366-.583.365a2.343,2.343,0,0,1-.338-.036,2.39,2.39,0,0,0-.356-.036q-.858,0-1.733,1.678a48.411,48.411,0,0,0-4.633,17.164q.42-.784,1.113-2.1.2-.4.493-.4.346,0,.347.456a1.313,1.313,0,0,1-.128.511,28.134,28.134,0,0,0-1.478,5.454q-.165.784-.711.784a3.817,3.817,0,0,1-1.879-.949,1.984,1.984,0,0,1-.693-.73,2.32,2.32,0,0,1,.018-1.058q.657-3.958,1.7-8.92a39.25,39.25,0,0,1,1.751-6.694,63.885,63.885,0,0,0-4.706,6.64q-2.736,4.3-4.779,8.19a6.166,6.166,0,0,1,.365,1.7q0,.711-1.2,1.824-.621.584-.821.584t-1.076-1.459a2.079,2.079,0,0,1-.383-.985,4.083,4.083,0,0,1,.529-1.24,60.16,60.16,0,0,0-4.25-10.58q-1.97,4.964-3.995,9.045,1.313,1.478,1.313,1.988,0,.4-.912.511a4.55,4.55,0,0,0-3.21,1.97q-.11.565-.547.565a3.76,3.76,0,0,1-1.915-1.113q-.4-.346-.4-.565,0-.2.331-.493a22.672,22.672,0,0,1,2.791-2.041,61.835,61.835,0,0,0,5.527-11.858q-2.226-4.888-5.527-6.822a2.031,2.031,0,0,0-1.04-.331,2.217,2.217,0,0,0-1.459.711q-.712.766-1.423,1.55a1.12,1.12,0,0,1-.821.456.29.29,0,0,1-.331-.331.884.884,0,0,1,.11-.383q2.463-4.943,4.706-4.853,2.663.092,6.913,6.6a10.817,10.817,0,0,0,1.04-4.286q0-.985.292-.985a3.5,3.5,0,0,1,1.277.784,1.213,1.213,0,0,1,.276.985,30.392,30.392,0,0,1-1.7,5.527,76.865,76.865,0,0,1,4.87,11.382,126.916,126.916,0,0,1,11.582-16.689,19.65,19.65,0,0,1,1.568-2.882,1.149,1.149,0,0,1,.967-.62Q427.057,447.988,429.228,449.739Z" transform="translate(-394.293 -447.897)" fill="#fff"/>
        <path id="Path_305" data-name="Path 305" d="M487.459,481.441a128.817,128.817,0,0,1-4.761,17.493q-4.3,11.273-9.886,11.273-3.265,0-7.023-3.557a.9.9,0,0,1-.331-.656q0-.548.511-.547a.755.755,0,0,1,.493.2q2.973,2.537,5.308,2.537,4.286,0,7.789-7.15a67.043,67.043,0,0,0,4.8-15.031q.127-.675.419-2.062a65.839,65.839,0,0,1-4.286,6.147A28.284,28.284,0,0,1,476.9,494.1a2.114,2.114,0,0,1-1.168.6,1.02,1.02,0,0,1-.711-.383q-.383-.492-.784-.967a.651.651,0,0,1-.183-.4v-.036q.036-.221.331-.31a14.578,14.578,0,0,0,1.641-5.126,55.237,55.237,0,0,0,.8-5.891q.036-.657-.165-.656a6.873,6.873,0,0,0-.857.656,9.169,9.169,0,0,1-1.387,1.076.226.226,0,0,1-.255-.255.392.392,0,0,1,.11-.255q.309-.386,1.386-1.915.966-1.368,1.295-1.368a1.69,1.69,0,0,1,.693.221q.93-.146,1.04-.146.62,0,.62.949a40.143,40.143,0,0,1-.912,6.211,37.1,37.1,0,0,1-1.5,5.973,27.973,27.973,0,0,0,4.743-5.654,28.383,28.383,0,0,0,3.539-6.184q.036-1.222.529-1.222a3.319,3.319,0,0,1,1.423.784Q487.715,480.237,487.459,481.441Z" transform="translate(-441.956 -468.583)" fill="#fff"/>
        <path id="Path_306" data-name="Path 306" d="M592.617,475.059q-1.605,2.827-2.918,2.918a2.891,2.891,0,0,1-1.915-.893,86.078,86.078,0,0,1-13.261-14.975q-.62,2.171-2.134,6.019-1.386,3.5-2.116,4.964-.4.8-.8.8a1.019,1.019,0,0,1-.547-.237q-1.186-.893-1.186-1.478a2.411,2.411,0,0,1,.221-.875,23.556,23.556,0,0,0,1-2.846q.018-.455.036-.893a.405.405,0,0,1,.31-.383q.237-.055,1.04,1.168,1.386-2.936,3.1-7.734a6.019,6.019,0,0,1-.985-1.861q0-.42,1.733-.565.766-2.225,1.678-5.691a37.225,37.225,0,0,0-4.451,1.933,11.071,11.071,0,0,0-3.538,2.9,2.516,2.516,0,0,0-.548,1.6,11.287,11.287,0,0,0,.693,2.791q.2.6-.346.6a.687.687,0,0,1-.584-.365,16.057,16.057,0,0,1-1.678-3.228,5.666,5.666,0,0,1-.438-1.459,3.193,3.193,0,0,1,1.3-2.116,25.43,25.43,0,0,1,10.014-5.308,6.91,6.91,0,0,0,.276-1.3q.146-.875.438-.839.346.055,1.112,1.5a25,25,0,0,1,5.235-.93q1.642.11,2.537,2.316a5.827,5.827,0,0,1,1.459,1.313,3.155,3.155,0,0,1,.492,1.861q0,2.025-2.482,5.108-2.537,3.156-4.357,3.155a3.778,3.778,0,0,1-1.861-.474l-1.313-.875a.462.462,0,0,1-.255-.383q0-.474.6-.474a2.692,2.692,0,0,1,.62.155,2.744,2.744,0,0,0,.839.155q1.806,0,4.086-2.937,2.061-2.626,2.062-4.357,0-2.1-2.919-2.1a14.7,14.7,0,0,0-5.381,1.168,71.945,71.945,0,0,1-2.041,7.17,88.706,88.706,0,0,0,8.163,10.4q4.909,5.362,6.694,5.49a2.247,2.247,0,0,0,1.532-.547.982.982,0,0,1,.6-.276q.365,0,.365.347A1.117,1.117,0,0,1,592.617,475.059Z" transform="translate(-508.613 -447.717)" fill="#fff"/>
        <path id="Path_307" data-name="Path 307" d="M649.511,488.38q-4.433,5.674-6.238,5.673a3.689,3.689,0,0,1-2.171-1.186q-1.368-.638-1.368-1.715a2.579,2.579,0,0,1,.036-.419,30.344,30.344,0,0,1,1.331-5.527q-.675-.346-.675-.657,0-.255.383-.255a1.284,1.284,0,0,1,.6.165,22.917,22.917,0,0,1,2.918-5.18q.84-1.021,1.514-1.022a5.88,5.88,0,0,1,1.532.529q-.091-.547.31-.638h.857q.784,0,.784.276a2.351,2.351,0,0,1-.055.31,2.259,2.259,0,0,0-.055.474q0,.656.018,1.624t.021,1.294a3.638,3.638,0,0,1-1.24,3.156,4.241,4.241,0,0,1-2.554.821,12.677,12.677,0,0,1-2.482-.4,10.056,10.056,0,0,0-.693,2.206,14.3,14.3,0,0,0-.474,3.685q.018.949.6.949a1.971,1.971,0,0,0,.565-.11q2.116-.747,5.891-4.56a.684.684,0,0,1,.474-.237q.346,0,.346.331A.669.669,0,0,1,649.511,488.38Zm-2.134-8.062q0-.712-.31-.711a1.15,1.15,0,0,0-.583.292,11.636,11.636,0,0,0-3.137,5.052q.365.055,1.277.11a2.844,2.844,0,0,0,2.206-.675,2.658,2.658,0,0,0,.6-1.806q-.054.932-.054-2.26Z" transform="translate(-558.677 -468.1)" fill="#fff"/>
        <path id="Path_308" data-name="Path 308" d="M684.031,481.029a11.184,11.184,0,0,1-.784,4.56.643.643,0,0,1-1.021.331q-1.022-.565-1.021-.93,0-.165.237-.346a7.555,7.555,0,0,0,.565-2.718.746.746,0,0,0-.821-.821,1.229,1.229,0,0,1-.276-.046,1.294,1.294,0,0,0-.292-.045q-.639,0-1.569,1.2a15.665,15.665,0,0,0-1.952,3.757,19.248,19.248,0,0,0-1.021,3.411,9.721,9.721,0,0,0-.2,1.861q0,2.79,1.769,2.736,1.55-.036,4.542-3.885a.778.778,0,0,1,.529-.347c.158,0,.237.1.237.292a.994.994,0,0,1-.091.365,14.867,14.867,0,0,1-2.537,4.177,1.687,1.687,0,0,1-1.35.456,5.4,5.4,0,0,1-1.423-.237,4.106,4.106,0,0,1-2.682-1.076,3.387,3.387,0,0,1-1-2.718,18.668,18.668,0,0,1,1.35-5.362,17.235,17.235,0,0,1,2.864-5.4q.693-.766,1.168-.766a5.075,5.075,0,0,1,1.86.8,4.282,4.282,0,0,1,1.478-.276Q684.03,480.007,684.031,481.029Z" transform="translate(-581.534 -468.991)" fill="#fff"/>
        <path id="Path_309" data-name="Path 309" d="M712.39,469.527a72.6,72.6,0,0,1-2.28,8.19,12.507,12.507,0,0,0,1.459-1.733.343.343,0,0,1,.255-.165q.292,0,.073.511-.091.2-1.532,2.5a18.128,18.128,0,0,0-1.6,3.1.6.6,0,0,1-.6.419,2.667,2.667,0,0,1-1.185-.419q-.475-.255-.474-.383a1.415,1.415,0,0,1,.2-.474,30.055,30.055,0,0,0,2.189-5.8,32.166,32.166,0,0,0,1.295-5.855q.055-.821-.165-.821-.165,0-.583.4l-1.131,1.058q-.6.547-.6.055a.665.665,0,0,1,.165-.365,25.728,25.728,0,0,1,1.823-2.28.811.811,0,0,1,.566-.31,1.759,1.759,0,0,1,.857.4,7.521,7.521,0,0,1,.93.276,1.02,1.02,0,0,1,.419.949A4.461,4.461,0,0,1,712.39,469.527Zm2.572-7.989a.618.618,0,0,1,.292.492q0,.529-1.569,1.642a2.572,2.572,0,0,1-2.006.511,2.381,2.381,0,0,1-.949-.4.81.81,0,0,1-.191-.228.209.209,0,0,1-.027-.191c.036-.048.11-.061.221-.036a22.348,22.348,0,0,0,2.206-2.1q.42-.474.6-.474a3.779,3.779,0,0,1,1.422.782Z" transform="translate(-603.394 -456.45)" fill="#fff"/>
        <path id="Path_310" data-name="Path 310" d="M738.234,475.02a22.366,22.366,0,0,1-1.623,6.622,13.023,13.023,0,0,1-2.592,4.505,2.187,2.187,0,0,1-1.477.675,6.246,6.246,0,0,1-2.791-1.35q-.382-.255-.383-.529,0-.346.492-.346a2.044,2.044,0,0,1,.584.127,2.052,2.052,0,0,0,.62.128,2.937,2.937,0,0,0,2.389-1.7,18.816,18.816,0,0,0,1.7-3.922,15.062,15.062,0,0,0,.839-5.271q-.055-1.058-.711-1.058a2.319,2.319,0,0,0-1.423.8,30.942,30.942,0,0,0-8.318,13.516,47.947,47.947,0,0,0-1.824,8.282q-.018.127-.492,6.329-.073.893-.438.893-.383,0-1.368-.893a1.674,1.674,0,0,1-.547-1.606,93.544,93.544,0,0,1,4.4-20.229q2.827-8.719,4.487-11.309.985-1.514,1.751-1.478a7.837,7.837,0,0,1,2.919,1.368q.291.183.291.386,0,.276-.437.276a2.391,2.391,0,0,1-.365-.046,2.412,2.412,0,0,0-.383-.046q-1.15,0-2.39,1.952a25.821,25.821,0,0,0-1.842,3.739,40.722,40.722,0,0,0-1.6,4.323,32.726,32.726,0,0,1,6.238-7.515,1.594,1.594,0,0,1,.986-.474,5.742,5.742,0,0,1,3.322,3.843Z" transform="translate(-612.996 -460.775)" fill="#fff"/>
        <path id="Path_311" data-name="Path 311" d="M787.625,488.38q-4.432,5.674-6.238,5.673a3.688,3.688,0,0,1-2.171-1.186q-1.368-.638-1.368-1.715a2.553,2.553,0,0,1,.037-.419,30.329,30.329,0,0,1,1.331-5.527q-.675-.346-.675-.657,0-.255.383-.255a1.287,1.287,0,0,1,.6.165,22.883,22.883,0,0,1,2.918-5.18q.839-1.021,1.514-1.022a5.871,5.871,0,0,1,1.532.529q-.091-.547.31-.638h.857q.784,0,.784.276a2.261,2.261,0,0,1-.055.31,2.272,2.272,0,0,0-.055.474q0,.656.018,1.624t.019,1.295a3.637,3.637,0,0,1-1.24,3.156,4.241,4.241,0,0,1-2.553.821,12.684,12.684,0,0,1-2.482-.4,10.067,10.067,0,0,0-.693,2.206,14.282,14.282,0,0,0-.474,3.685q.018.949.6.949a1.972,1.972,0,0,0,.566-.11q2.115-.747,5.891-4.56a.684.684,0,0,1,.474-.237q.346,0,.346.331A.67.67,0,0,1,787.625,488.38Zm-2.134-8.062q0-.712-.31-.711a1.152,1.152,0,0,0-.584.292,11.634,11.634,0,0,0-3.137,5.052q.365.055,1.277.11a2.844,2.844,0,0,0,2.206-.675,2.657,2.657,0,0,0,.6-1.806q-.053.932-.054-2.26Z" transform="translate(-651.18 -468.1)" fill="#fff"/>
      </g>
      <g id="Group_9532" data-name="Group 9532" transform="translate(394.293 447.717)">
        <path id="Path_313" data-name="Path 313" d="M429.228,449.739a.331.331,0,0,1,.127.255q0,.366-.583.365a2.343,2.343,0,0,1-.338-.036,2.39,2.39,0,0,0-.356-.036q-.858,0-1.733,1.678a48.411,48.411,0,0,0-4.633,17.164q.42-.784,1.113-2.1.2-.4.493-.4.346,0,.347.456a1.313,1.313,0,0,1-.128.511,28.134,28.134,0,0,0-1.478,5.454q-.165.784-.711.784a3.817,3.817,0,0,1-1.879-.949,1.984,1.984,0,0,1-.693-.73,2.32,2.32,0,0,1,.018-1.058q.657-3.958,1.7-8.92a39.25,39.25,0,0,1,1.751-6.694,63.885,63.885,0,0,0-4.706,6.64q-2.736,4.3-4.779,8.19a6.166,6.166,0,0,1,.365,1.7q0,.711-1.2,1.824-.621.584-.821.584t-1.076-1.459a2.079,2.079,0,0,1-.383-.985,4.083,4.083,0,0,1,.529-1.24,60.16,60.16,0,0,0-4.25-10.58q-1.97,4.964-3.995,9.045,1.313,1.478,1.313,1.988,0,.4-.912.511a4.55,4.55,0,0,0-3.21,1.97q-.11.565-.547.565a3.76,3.76,0,0,1-1.915-1.113q-.4-.346-.4-.565,0-.2.331-.493a22.672,22.672,0,0,1,2.791-2.041,61.835,61.835,0,0,0,5.527-11.858q-2.226-4.888-5.527-6.822a2.031,2.031,0,0,0-1.04-.331,2.217,2.217,0,0,0-1.459.711q-.712.766-1.423,1.55a1.12,1.12,0,0,1-.821.456.29.29,0,0,1-.331-.331.884.884,0,0,1,.11-.383q2.463-4.943,4.706-4.853,2.663.092,6.913,6.6a10.817,10.817,0,0,0,1.04-4.286q0-.985.292-.985a3.5,3.5,0,0,1,1.277.784,1.213,1.213,0,0,1,.276.985,30.392,30.392,0,0,1-1.7,5.527,76.865,76.865,0,0,1,4.87,11.382,126.916,126.916,0,0,1,11.582-16.689,19.65,19.65,0,0,1,1.568-2.882,1.149,1.149,0,0,1,.967-.62Q427.057,447.988,429.228,449.739Z" transform="translate(-394.293 -447.897)" fill="none" stroke="#fff" stroke-width="2"/>
        <path id="Path_314" data-name="Path 314" d="M487.459,481.441a128.817,128.817,0,0,1-4.761,17.493q-4.3,11.273-9.886,11.273-3.265,0-7.023-3.557a.9.9,0,0,1-.331-.656q0-.548.511-.547a.755.755,0,0,1,.493.2q2.973,2.537,5.308,2.537,4.286,0,7.789-7.15a67.043,67.043,0,0,0,4.8-15.031q.127-.675.419-2.062a65.839,65.839,0,0,1-4.286,6.147A28.284,28.284,0,0,1,476.9,494.1a2.114,2.114,0,0,1-1.168.6,1.02,1.02,0,0,1-.711-.383q-.383-.492-.784-.967a.651.651,0,0,1-.183-.4v-.036q.036-.221.331-.31a14.578,14.578,0,0,0,1.641-5.126,55.237,55.237,0,0,0,.8-5.891q.036-.657-.165-.656a6.873,6.873,0,0,0-.857.656,9.169,9.169,0,0,1-1.387,1.076.226.226,0,0,1-.255-.255.392.392,0,0,1,.11-.255q.309-.386,1.386-1.915.966-1.368,1.295-1.368a1.69,1.69,0,0,1,.693.221q.93-.146,1.04-.146.62,0,.62.949a40.143,40.143,0,0,1-.912,6.211,37.1,37.1,0,0,1-1.5,5.973,27.973,27.973,0,0,0,4.743-5.654,28.383,28.383,0,0,0,3.539-6.184q.036-1.222.529-1.222a3.319,3.319,0,0,1,1.423.784Q487.715,480.237,487.459,481.441Z" transform="translate(-441.956 -468.583)" fill="none" stroke="#fff" stroke-width="2"/>
        <path id="Path_315" data-name="Path 315" d="M592.617,475.059q-1.605,2.827-2.918,2.918a2.891,2.891,0,0,1-1.915-.893,86.078,86.078,0,0,1-13.261-14.975q-.62,2.171-2.134,6.019-1.386,3.5-2.116,4.964-.4.8-.8.8a1.019,1.019,0,0,1-.547-.237q-1.186-.893-1.186-1.478a2.411,2.411,0,0,1,.221-.875,23.556,23.556,0,0,0,1-2.846q.018-.455.036-.893a.405.405,0,0,1,.31-.383q.237-.055,1.04,1.168,1.386-2.936,3.1-7.734a6.019,6.019,0,0,1-.985-1.861q0-.42,1.733-.565.766-2.225,1.678-5.691a37.225,37.225,0,0,0-4.451,1.933,11.071,11.071,0,0,0-3.538,2.9,2.516,2.516,0,0,0-.548,1.6,11.287,11.287,0,0,0,.693,2.791q.2.6-.346.6a.687.687,0,0,1-.584-.365,16.057,16.057,0,0,1-1.678-3.228,5.666,5.666,0,0,1-.438-1.459,3.193,3.193,0,0,1,1.3-2.116,25.43,25.43,0,0,1,10.014-5.308,6.91,6.91,0,0,0,.276-1.3q.146-.875.438-.839.346.055,1.112,1.5a25,25,0,0,1,5.235-.93q1.642.11,2.537,2.316a5.827,5.827,0,0,1,1.459,1.313,3.155,3.155,0,0,1,.492,1.861q0,2.025-2.482,5.108-2.537,3.156-4.357,3.155a3.778,3.778,0,0,1-1.861-.474l-1.313-.875a.462.462,0,0,1-.255-.383q0-.474.6-.474a2.692,2.692,0,0,1,.62.155,2.744,2.744,0,0,0,.839.155q1.806,0,4.086-2.937,2.061-2.626,2.062-4.357,0-2.1-2.919-2.1a14.7,14.7,0,0,0-5.381,1.168,71.945,71.945,0,0,1-2.041,7.17,88.706,88.706,0,0,0,8.163,10.4q4.909,5.362,6.694,5.49a2.247,2.247,0,0,0,1.532-.547.982.982,0,0,1,.6-.276q.365,0,.365.347A1.117,1.117,0,0,1,592.617,475.059Z" transform="translate(-508.613 -447.717)" fill="none" stroke="#fff" stroke-width="2"/>
        <path id="Path_316" data-name="Path 316" d="M649.511,488.38q-4.433,5.674-6.238,5.673a3.689,3.689,0,0,1-2.171-1.186q-1.368-.638-1.368-1.715a2.579,2.579,0,0,1,.036-.419,30.344,30.344,0,0,1,1.331-5.527q-.675-.346-.675-.657,0-.255.383-.255a1.284,1.284,0,0,1,.6.165,22.917,22.917,0,0,1,2.918-5.18q.84-1.021,1.514-1.022a5.88,5.88,0,0,1,1.532.529q-.091-.547.31-.638h.857q.784,0,.784.276a2.351,2.351,0,0,1-.055.31,2.259,2.259,0,0,0-.055.474q0,.656.018,1.624t.021,1.294a3.638,3.638,0,0,1-1.24,3.156,4.241,4.241,0,0,1-2.554.821,12.677,12.677,0,0,1-2.482-.4,10.056,10.056,0,0,0-.693,2.206,14.3,14.3,0,0,0-.474,3.685q.018.949.6.949a1.971,1.971,0,0,0,.565-.11q2.116-.747,5.891-4.56a.684.684,0,0,1,.474-.237q.346,0,.346.331A.669.669,0,0,1,649.511,488.38Zm-2.134-8.062q0-.712-.31-.711a1.15,1.15,0,0,0-.583.292,11.636,11.636,0,0,0-3.137,5.052q.365.055,1.277.11a2.844,2.844,0,0,0,2.206-.675,2.658,2.658,0,0,0,.6-1.806q-.054.932-.054-2.26Z" transform="translate(-558.677 -468.1)" fill="none" stroke="#fff" stroke-width="2"/>
        <path id="Path_317" data-name="Path 317" d="M684.031,481.029a11.184,11.184,0,0,1-.784,4.56.643.643,0,0,1-1.021.331q-1.022-.565-1.021-.93,0-.165.237-.346a7.555,7.555,0,0,0,.565-2.718.746.746,0,0,0-.821-.821,1.229,1.229,0,0,1-.276-.046,1.294,1.294,0,0,0-.292-.045q-.639,0-1.569,1.2a15.665,15.665,0,0,0-1.952,3.757,19.248,19.248,0,0,0-1.021,3.411,9.721,9.721,0,0,0-.2,1.861q0,2.79,1.769,2.736,1.55-.036,4.542-3.885a.778.778,0,0,1,.529-.347c.158,0,.237.1.237.292a.994.994,0,0,1-.091.365,14.867,14.867,0,0,1-2.537,4.177,1.687,1.687,0,0,1-1.35.456,5.4,5.4,0,0,1-1.423-.237,4.106,4.106,0,0,1-2.682-1.076,3.387,3.387,0,0,1-1-2.718,18.668,18.668,0,0,1,1.35-5.362,17.235,17.235,0,0,1,2.864-5.4q.693-.766,1.168-.766a5.075,5.075,0,0,1,1.86.8,4.282,4.282,0,0,1,1.478-.276Q684.03,480.007,684.031,481.029Z" transform="translate(-581.534 -468.991)" fill="none" stroke="#fff" stroke-width="2"/>
        <path id="Path_318" data-name="Path 318" d="M712.39,469.527a72.6,72.6,0,0,1-2.28,8.19,12.507,12.507,0,0,0,1.459-1.733.343.343,0,0,1,.255-.165q.292,0,.073.511-.091.2-1.532,2.5a18.128,18.128,0,0,0-1.6,3.1.6.6,0,0,1-.6.419,2.667,2.667,0,0,1-1.185-.419q-.475-.255-.474-.383a1.415,1.415,0,0,1,.2-.474,30.055,30.055,0,0,0,2.189-5.8,32.166,32.166,0,0,0,1.295-5.855q.055-.821-.165-.821-.165,0-.583.4l-1.131,1.058q-.6.547-.6.055a.665.665,0,0,1,.165-.365,25.728,25.728,0,0,1,1.823-2.28.811.811,0,0,1,.566-.31,1.759,1.759,0,0,1,.857.4,7.521,7.521,0,0,1,.93.276,1.02,1.02,0,0,1,.419.949A4.461,4.461,0,0,1,712.39,469.527Zm2.572-7.989a.618.618,0,0,1,.292.492q0,.529-1.569,1.642a2.572,2.572,0,0,1-2.006.511,2.381,2.381,0,0,1-.949-.4.81.81,0,0,1-.191-.228.209.209,0,0,1-.027-.191c.036-.048.11-.061.221-.036a22.348,22.348,0,0,0,2.206-2.1q.42-.474.6-.474a3.779,3.779,0,0,1,1.422.782Z" transform="translate(-603.394 -456.45)" fill="none" stroke="#fff" stroke-width="2"/>
        <path id="Path_319" data-name="Path 319" d="M738.234,475.02a22.366,22.366,0,0,1-1.623,6.622,13.023,13.023,0,0,1-2.592,4.505,2.187,2.187,0,0,1-1.477.675,6.246,6.246,0,0,1-2.791-1.35q-.382-.255-.383-.529,0-.346.492-.346a2.044,2.044,0,0,1,.584.127,2.052,2.052,0,0,0,.62.128,2.937,2.937,0,0,0,2.389-1.7,18.816,18.816,0,0,0,1.7-3.922,15.062,15.062,0,0,0,.839-5.271q-.055-1.058-.711-1.058a2.319,2.319,0,0,0-1.423.8,30.942,30.942,0,0,0-8.318,13.516,47.947,47.947,0,0,0-1.824,8.282q-.018.127-.492,6.329-.073.893-.438.893-.383,0-1.368-.893a1.674,1.674,0,0,1-.547-1.606,93.544,93.544,0,0,1,4.4-20.229q2.827-8.719,4.487-11.309.985-1.514,1.751-1.478a7.837,7.837,0,0,1,2.919,1.368q.291.183.291.386,0,.276-.437.276a2.391,2.391,0,0,1-.365-.046,2.412,2.412,0,0,0-.383-.046q-1.15,0-2.39,1.952a25.821,25.821,0,0,0-1.842,3.739,40.722,40.722,0,0,0-1.6,4.323,32.726,32.726,0,0,1,6.238-7.515,1.594,1.594,0,0,1,.986-.474,5.742,5.742,0,0,1,3.322,3.843Z" transform="translate(-612.996 -460.775)" fill="none" stroke="#fff" stroke-width="2"/>
        <path id="Path_320" data-name="Path 320" d="M787.625,488.38q-4.432,5.674-6.238,5.673a3.688,3.688,0,0,1-2.171-1.186q-1.368-.638-1.368-1.715a2.553,2.553,0,0,1,.037-.419,30.329,30.329,0,0,1,1.331-5.527q-.675-.346-.675-.657,0-.255.383-.255a1.287,1.287,0,0,1,.6.165,22.883,22.883,0,0,1,2.918-5.18q.839-1.021,1.514-1.022a5.871,5.871,0,0,1,1.532.529q-.091-.547.31-.638h.857q.784,0,.784.276a2.261,2.261,0,0,1-.055.31,2.272,2.272,0,0,0-.055.474q0,.656.018,1.624t.019,1.295a3.637,3.637,0,0,1-1.24,3.156,4.241,4.241,0,0,1-2.553.821,12.684,12.684,0,0,1-2.482-.4,10.067,10.067,0,0,0-.693,2.206,14.282,14.282,0,0,0-.474,3.685q.018.949.6.949a1.972,1.972,0,0,0,.566-.11q2.115-.747,5.891-4.56a.684.684,0,0,1,.474-.237q.346,0,.346.331A.67.67,0,0,1,787.625,488.38Zm-2.134-8.062q0-.712-.31-.711a1.152,1.152,0,0,0-.584.292,11.634,11.634,0,0,0-3.137,5.052q.365.055,1.277.11a2.844,2.844,0,0,0,2.206-.675,2.657,2.657,0,0,0,.6-1.806q-.053.932-.054-2.26Z" transform="translate(-651.18 -468.1)" fill="none" stroke="#fff" stroke-width="2"/>
      </g>
    </g>
  </g>
</svg>
