<svg xmlns="http://www.w3.org/2000/svg" xmlns:xlink="http://www.w3.org/1999/xlink" width="375" height="812" viewBox="0 0 375 812">
  <defs>
    <linearGradient id="linear-gradient" x1="0.5" x2="0.5" y2="1" gradientUnits="objectBoundingBox">
      <stop offset="0" stop-color="#ff3434"/>
      <stop offset="1" stop-color="#db2732"/>
    </linearGradient>
    <linearGradient id="linear-gradient-2" x1="0.5" x2="0.5" y2="1" gradientUnits="objectBoundingBox">
      <stop offset="0" stop-color="#fa4b4b"/>
      <stop offset="1" stop-color="#dc3c46"/>
    </linearGradient>
    <clipPath id="clip-splash">
      <rect width="375" height="812"/>
    </clipPath>
  </defs>
  <g id="splash" clip-path="url(#clip-splash)">
    <rect width="375" height="812" fill="#fff"/>
    <g id="splash_screen">
      <g id="color_primary_3_copy_5" data-name="color/primary 3 copy 5" transform="translate(0 -40)">
        <path id="color_primary_copy" data-name="color/primary copy" d="M0,0H375V812H0Z" transform="translate(0 40)" fill="url(#linear-gradient)"/>
      </g>
      <g id="Circle" transform="translate(12 402)">
        <circle id="Circle_4" data-name="Circle 4" cx="64" cy="64" r="64" transform="translate(124 140)" fill="url(#linear-gradient-2)"/>
        <circle id="Circle_2" data-name="Circle 2" cx="18.5" cy="18.5" r="18.5" transform="translate(216 233)" fill="url(#linear-gradient-2)"/>
      </g>
      <circle id="Circle_5" data-name="Circle 5" cx="109" cy="109" r="109" transform="translate(251 292)" fill="url(#linear-gradient-2)"/>
      <circle id="Circle_5-2" data-name="Circle 5" cx="109" cy="109" r="109" transform="translate(-109 672)" fill="url(#linear-gradient-2)"/>
      <circle id="Circle_1" data-name="Circle 1" cx="125" cy="125" r="125" transform="translate(-105 -69)" fill="url(#linear-gradient-2)"/>
      <circle id="Circle_3" data-name="Circle 3" cx="27.5" cy="27.5" r="27.5" transform="translate(118 29)" fill="url(#linear-gradient-2)"/>
      <g id="Group_9507" data-name="Group 9507" transform="translate(7.478 3)">
        <path id="chef_icon" d="M120.936,24.93a29.153,29.153,0,0,0-11.788,2.5,35.689,35.689,0,0,0-52.348,0A29.025,29.025,0,1,0,37.667,82.035l7.362,43.549v22.138a2.233,2.233,0,0,0,2.233,2.233H118.7a2.233,2.233,0,0,0,2.233-2.233V125.584L128.3,82.035a29.028,29.028,0,0,0-7.362-57.1Zm-4.465,120.56H49.493V127.629h66.978ZM125.9,78.011a2.233,2.233,0,0,0-1.753,1.814l-7.326,43.338H103.241L105.3,94.3h0c0-.053.008-.105.008-.159a2.233,2.233,0,0,0-4.457-.159h0l-2.085,29.182H85.215V98.605a2.233,2.233,0,0,0-4.465,0v24.558H67.2L65.116,93.981h0a2.233,2.233,0,0,0-4.457.159c0,.054,0,.106.008.159h0l2.062,28.865H49.148L41.822,79.826a2.233,2.233,0,0,0-1.753-1.814A24.561,24.561,0,1,1,69.587,53.954a2.233,2.233,0,0,0,4.465,0,29.022,29.022,0,0,0-13.19-24.312,31.261,31.261,0,0,1,52.253,13.743,2.232,2.232,0,1,0,4.3-1.188,35.423,35.423,0,0,0-5.325-11.161,24.312,24.312,0,0,1,8.842-1.64A24.561,24.561,0,0,1,125.9,78.011Z" transform="translate(97.516 264.045)" fill="#fff"/>
      </g>
      <g id="Circle-2" data-name="Circle" transform="translate(-174 164)">
        <circle id="Circle_2-2" data-name="Circle 2" cx="18.5" cy="18.5" r="18.5" transform="translate(212 152)" fill="url(#linear-gradient-2)"/>
      </g>
      <g id="Foody" transform="translate(-289.293 -12.717)">
        <g id="Group_9531" data-name="Group 9531" transform="translate(394.293 447.717)">
          <path id="Path_304" data-name="Path 304" d="M436.663,450.113a.4.4,0,0,1,.154.31q0,.444-.708.443a2.846,2.846,0,0,1-.409-.044,2.914,2.914,0,0,0-.431-.044q-1.04,0-2.1,2.035-4.314,8.361-5.619,20.817.509-.95,1.35-2.542.243-.487.6-.487.42,0,.421.553a1.592,1.592,0,0,1-.155.619,34.122,34.122,0,0,0-1.792,6.615q-.2.951-.863.951a4.63,4.63,0,0,1-2.279-1.151,2.407,2.407,0,0,1-.841-.885,2.816,2.816,0,0,1,.022-1.283q.8-4.8,2.058-10.818,1.46-6.88,2.124-8.118a77.494,77.494,0,0,0-5.708,8.053q-3.318,5.221-5.8,9.933a7.475,7.475,0,0,1,.443,2.057q0,.863-1.46,2.213-.753.708-1,.708t-1.305-1.77a2.522,2.522,0,0,1-.465-1.195,4.95,4.95,0,0,1,.641-1.5,72.959,72.959,0,0,0-5.155-12.831q-2.389,6.02-4.845,10.97,1.593,1.792,1.593,2.411,0,.487-1.106.619a5.518,5.518,0,0,0-3.894,2.389q-.134.685-.664.686a4.561,4.561,0,0,1-2.322-1.35q-.488-.419-.487-.686,0-.244.4-.6a27.494,27.494,0,0,1,3.385-2.475,75,75,0,0,0,6.7-14.381q-2.7-5.928-6.7-8.274a2.462,2.462,0,0,0-1.261-.4,2.689,2.689,0,0,0-1.77.862q-.863.929-1.726,1.88a1.359,1.359,0,0,1-1,.553.352.352,0,0,1-.4-.4,1.072,1.072,0,0,1,.134-.465q2.987-5.995,5.708-5.886,3.23.111,8.384,8.009a13.12,13.12,0,0,0,1.261-5.2q0-1.195.354-1.195a4.249,4.249,0,0,1,1.548.951,1.471,1.471,0,0,1,.334,1.195,36.859,36.859,0,0,1-2.057,6.7,93.219,93.219,0,0,1,5.906,13.8,153.927,153.927,0,0,1,14.047-20.242,23.835,23.835,0,0,1,1.9-3.5,1.394,1.394,0,0,1,1.173-.753Q434.03,447.989,436.663,450.113Z" transform="translate(-394.293 -447.88)" fill="#fff"/>
          <path id="Path_305" data-name="Path 305" d="M492.141,481.988a156.232,156.232,0,0,1-5.774,21.215q-5.221,13.672-11.99,13.672-3.96,0-8.517-4.314a1.1,1.1,0,0,1-.4-.8q0-.664.619-.664a.916.916,0,0,1,.6.243q3.606,3.077,6.437,3.077,5.2,0,9.446-8.672a81.311,81.311,0,0,0,5.819-18.229q.154-.818.508-2.5a79.86,79.86,0,0,1-5.2,7.456,34.3,34.3,0,0,1-4.358,4.867,2.563,2.563,0,0,1-1.416.73,1.238,1.238,0,0,1-.863-.465q-.464-.6-.951-1.173a.79.79,0,0,1-.221-.487V495.9q.044-.268.4-.376,1.062-1.437,1.991-6.217a66.988,66.988,0,0,0,.974-7.145q.044-.8-.2-.8a8.339,8.339,0,0,0-1.039.8,11.116,11.116,0,0,1-1.682,1.305.274.274,0,0,1-.31-.31.475.475,0,0,1,.134-.309q.375-.468,1.681-2.323,1.172-1.659,1.571-1.66a2.05,2.05,0,0,1,.84.268q1.128-.177,1.262-.177.752,0,.752,1.151a48.686,48.686,0,0,1-1.106,7.533,44.987,44.987,0,0,1-1.814,7.245,33.924,33.924,0,0,0,5.752-6.858,34.425,34.425,0,0,0,4.292-7.5q.044-1.482.641-1.482a4.026,4.026,0,0,1,1.726.951Q492.451,480.528,492.141,481.988Z" transform="translate(-436.954 -466.393)" fill="#fff"/>
          <path id="Path_306" data-name="Path 306" d="M598.5,480.878q-1.947,3.429-3.539,3.539a3.506,3.506,0,0,1-2.323-1.084,104.4,104.4,0,0,1-16.083-18.162q-.752,2.633-2.589,7.3-1.681,4.247-2.566,6.02-.487.974-.973.974a1.236,1.236,0,0,1-.664-.288q-1.438-1.084-1.438-1.792a2.924,2.924,0,0,1,.268-1.062,28.561,28.561,0,0,0,1.217-3.452q.022-.552.044-1.084a.492.492,0,0,1,.376-.465q.287-.067,1.261,1.416,1.681-3.561,3.761-9.38a7.3,7.3,0,0,1-1.195-2.257q0-.509,2.1-.686.929-2.7,2.035-6.9a45.153,45.153,0,0,0-5.4,2.344,13.427,13.427,0,0,0-4.291,3.518,3.052,3.052,0,0,0-.664,1.947,13.7,13.7,0,0,0,.841,3.384q.243.73-.42.73a.833.833,0,0,1-.708-.442,19.468,19.468,0,0,1-2.035-3.916,6.868,6.868,0,0,1-.531-1.77,3.873,3.873,0,0,1,1.571-2.566,30.842,30.842,0,0,1,12.146-6.437,8.381,8.381,0,0,0,.334-1.571q.177-1.061.531-1.017.419.067,1.349,1.814a30.326,30.326,0,0,1,6.349-1.128q1.991.134,3.077,2.809a7.066,7.066,0,0,1,1.77,1.593,3.826,3.826,0,0,1,.6,2.257q0,2.456-3.01,6.195-3.077,3.827-5.284,3.827a4.582,4.582,0,0,1-2.257-.575l-1.593-1.062a.56.56,0,0,1-.31-.465q0-.575.73-.575a3.266,3.266,0,0,1,.752.188,3.328,3.328,0,0,0,1.017.188q2.19,0,4.955-3.562,2.5-3.185,2.5-5.284,0-2.542-3.54-2.542a17.825,17.825,0,0,0-6.526,1.416,87.257,87.257,0,0,1-2.475,8.7,107.6,107.6,0,0,0,9.9,12.619q5.953,6.5,8.119,6.659a2.725,2.725,0,0,0,1.858-.664,1.191,1.191,0,0,1,.731-.335q.443,0,.443.421A1.355,1.355,0,0,1,598.5,480.878Z" transform="translate(-496.615 -447.717)" fill="#fff"/>
          <path id="Path_307" data-name="Path 307" d="M651.592,490.557q-5.376,6.881-7.566,6.88A4.473,4.473,0,0,1,641.394,496q-1.66-.774-1.66-2.08a3.112,3.112,0,0,1,.044-.508,36.8,36.8,0,0,1,1.615-6.7q-.818-.42-.819-.8,0-.31.465-.31a1.558,1.558,0,0,1,.73.2,27.8,27.8,0,0,1,3.539-6.283q1.018-1.239,1.836-1.24a7.127,7.127,0,0,1,1.858.641q-.111-.663.376-.774h1.04q.951,0,.951.335a2.845,2.845,0,0,1-.067.376,2.735,2.735,0,0,0-.067.575q0,.8.022,1.969t.025,1.569q0,2.742-1.5,3.827a5.143,5.143,0,0,1-3.1,1,15.376,15.376,0,0,1-3.01-.487,12.191,12.191,0,0,0-.841,2.676,17.34,17.34,0,0,0-.575,4.469q.021,1.151.73,1.151a2.391,2.391,0,0,0,.686-.134q2.566-.906,7.145-5.531a.83.83,0,0,1,.575-.288q.42,0,.42.4A.811.811,0,0,1,651.592,490.557ZM649,480.779q0-.863-.376-.863a1.4,1.4,0,0,0-.708.354q-2.169,1.748-3.8,6.128.442.067,1.549.134a3.449,3.449,0,0,0,2.676-.819,3.224,3.224,0,0,0,.73-2.19q-.065,1.131-.066-2.741Z" transform="translate(-541.426 -465.961)" fill="#fff"/>
          <path id="Path_308" data-name="Path 308" d="M686.2,481.358a13.564,13.564,0,0,1-.951,5.53.78.78,0,0,1-1.239.4q-1.239-.685-1.239-1.128,0-.2.288-.42a9.163,9.163,0,0,0,.685-3.3.9.9,0,0,0-1-1,1.49,1.49,0,0,1-.334-.056,1.568,1.568,0,0,0-.354-.055q-.775,0-1.9,1.46a19,19,0,0,0-2.367,4.557,23.339,23.339,0,0,0-1.239,4.137,11.786,11.786,0,0,0-.243,2.257q0,3.384,2.146,3.318,1.879-.044,5.508-4.712a.943.943,0,0,1,.641-.421c.191,0,.288.118.288.354a1.205,1.205,0,0,1-.11.443A18.032,18.032,0,0,1,681.7,497.8a2.047,2.047,0,0,1-1.637.553,6.551,6.551,0,0,1-1.726-.288,4.98,4.98,0,0,1-3.252-1.305,4.108,4.108,0,0,1-1.217-3.3,22.638,22.638,0,0,1,1.637-6.5,20.9,20.9,0,0,1,3.473-6.549q.841-.929,1.416-.929a6.154,6.154,0,0,1,2.256.973,5.194,5.194,0,0,1,1.793-.334Q686.2,480.119,686.2,481.358Z" transform="translate(-561.886 -466.759)" fill="#fff"/>
          <path id="Path_309" data-name="Path 309" d="M713.644,471.394a88.047,88.047,0,0,1-2.765,9.933,15.165,15.165,0,0,0,1.77-2.1.416.416,0,0,1,.31-.2q.354,0,.088.619-.111.244-1.858,3.031a21.99,21.99,0,0,0-1.946,3.761.729.729,0,0,1-.731.508,3.234,3.234,0,0,1-1.437-.508q-.576-.31-.575-.465a1.717,1.717,0,0,1,.243-.575,36.453,36.453,0,0,0,2.655-7.035,39.008,39.008,0,0,0,1.57-7.1q.067-1-.2-1-.2,0-.707.487l-1.372,1.283q-.73.663-.73.067a.806.806,0,0,1,.2-.442,31.2,31.2,0,0,1,2.211-2.765.984.984,0,0,1,.686-.376A2.134,2.134,0,0,1,712.1,469a9.139,9.139,0,0,1,1.128.334,1.237,1.237,0,0,1,.508,1.151A5.4,5.4,0,0,1,713.644,471.394Zm3.119-9.69a.75.75,0,0,1,.354.6q0,.642-1.9,1.991a3.119,3.119,0,0,1-2.433.619,2.887,2.887,0,0,1-1.15-.487.983.983,0,0,1-.232-.276.253.253,0,0,1-.033-.232c.044-.059.134-.074.268-.044a27.113,27.113,0,0,0,2.676-2.542q.509-.575.73-.575a4.584,4.584,0,0,1,1.725.948Z" transform="translate(-581.45 -455.534)" fill="#fff"/>
          <path id="Path_310" data-name="Path 310" d="M741.938,476.681a27.129,27.129,0,0,1-1.969,8.031,15.8,15.8,0,0,1-3.144,5.464,2.653,2.653,0,0,1-1.792.819q-1.018,0-3.385-1.637-.464-.31-.464-.641,0-.42.6-.42a2.479,2.479,0,0,1,.709.155,2.489,2.489,0,0,0,.752.155q1.614,0,2.9-2.058a22.831,22.831,0,0,0,2.058-4.757,18.264,18.264,0,0,0,1.017-6.393q-.067-1.283-.863-1.283a2.813,2.813,0,0,0-1.726.973,37.528,37.528,0,0,0-10.088,16.393,58.143,58.143,0,0,0-2.212,10.044q-.022.155-.6,7.676-.088,1.084-.531,1.084-.464,0-1.659-1.084a2.03,2.03,0,0,1-.664-1.947,113.459,113.459,0,0,1,5.331-24.534q3.429-10.575,5.442-13.716,1.195-1.836,2.124-1.792a9.505,9.505,0,0,1,3.54,1.659q.353.222.353.468,0,.335-.53.334a2.894,2.894,0,0,1-.442-.055,2.925,2.925,0,0,0-.465-.056q-1.394,0-2.9,2.367a31.322,31.322,0,0,0-2.235,4.535,49.409,49.409,0,0,0-1.947,5.243,39.691,39.691,0,0,1,7.565-9.114,1.934,1.934,0,0,1,1.2-.575,6.965,6.965,0,0,1,4.029,4.661Z" transform="translate(-590.045 -459.405)" fill="#fff"/>
          <path id="Path_311" data-name="Path 311" d="M789.706,490.557q-5.376,6.881-7.566,6.88A4.473,4.473,0,0,1,779.507,496q-1.659-.774-1.659-2.08a3.092,3.092,0,0,1,.044-.508,36.794,36.794,0,0,1,1.615-6.7q-.818-.42-.819-.8,0-.31.465-.31a1.562,1.562,0,0,1,.731.2,27.751,27.751,0,0,1,3.54-6.283q1.018-1.239,1.836-1.24a7.118,7.118,0,0,1,1.858.641q-.111-.663.377-.774h1.04q.951,0,.951.335a2.746,2.746,0,0,1-.067.376,2.756,2.756,0,0,0-.067.575q0,.8.022,1.969t.023,1.571q0,2.742-1.5,3.827a5.143,5.143,0,0,1-3.1,1,15.385,15.385,0,0,1-3.01-.487,12.207,12.207,0,0,0-.841,2.676,17.321,17.321,0,0,0-.575,4.469q.022,1.151.73,1.151a2.393,2.393,0,0,0,.687-.134q2.565-.906,7.145-5.53a.83.83,0,0,1,.575-.288q.42,0,.42.4A.812.812,0,0,1,789.706,490.557Zm-2.589-9.778q0-.863-.376-.863a1.4,1.4,0,0,0-.708.354q-2.169,1.748-3.8,6.128.443.067,1.548.134a3.449,3.449,0,0,0,2.675-.819,3.223,3.223,0,0,0,.73-2.19q-.064,1.131-.065-2.741Z" transform="translate(-624.221 -465.961)" fill="#fff"/>
        </g>
        <g id="Group_9532" data-name="Group 9532" transform="translate(394.293 447.717)">
          <path id="Path_313" data-name="Path 313" d="M436.663,450.113a.4.4,0,0,1,.154.31q0,.444-.708.443a2.846,2.846,0,0,1-.409-.044,2.914,2.914,0,0,0-.431-.044q-1.04,0-2.1,2.035-4.314,8.361-5.619,20.817.509-.95,1.35-2.542.243-.487.6-.487.42,0,.421.553a1.592,1.592,0,0,1-.155.619,34.122,34.122,0,0,0-1.792,6.615q-.2.951-.863.951a4.63,4.63,0,0,1-2.279-1.151,2.407,2.407,0,0,1-.841-.885,2.816,2.816,0,0,1,.022-1.283q.8-4.8,2.058-10.818,1.46-6.88,2.124-8.118a77.494,77.494,0,0,0-5.708,8.053q-3.318,5.221-5.8,9.933a7.475,7.475,0,0,1,.443,2.057q0,.863-1.46,2.213-.753.708-1,.708t-1.305-1.77a2.522,2.522,0,0,1-.465-1.195,4.95,4.95,0,0,1,.641-1.5,72.959,72.959,0,0,0-5.155-12.831q-2.389,6.02-4.845,10.97,1.593,1.792,1.593,2.411,0,.487-1.106.619a5.518,5.518,0,0,0-3.894,2.389q-.134.685-.664.686a4.561,4.561,0,0,1-2.322-1.35q-.488-.419-.487-.686,0-.244.4-.6a27.494,27.494,0,0,1,3.385-2.475,75,75,0,0,0,6.7-14.381q-2.7-5.928-6.7-8.274a2.462,2.462,0,0,0-1.261-.4,2.689,2.689,0,0,0-1.77.862q-.863.929-1.726,1.88a1.359,1.359,0,0,1-1,.553.352.352,0,0,1-.4-.4,1.072,1.072,0,0,1,.134-.465q2.987-5.995,5.708-5.886,3.23.111,8.384,8.009a13.12,13.12,0,0,0,1.261-5.2q0-1.195.354-1.195a4.249,4.249,0,0,1,1.548.951,1.471,1.471,0,0,1,.334,1.195,36.859,36.859,0,0,1-2.057,6.7,93.219,93.219,0,0,1,5.906,13.8,153.927,153.927,0,0,1,14.047-20.242,23.835,23.835,0,0,1,1.9-3.5,1.394,1.394,0,0,1,1.173-.753Q434.03,447.989,436.663,450.113Z" transform="translate(-394.293 -447.88)" fill="none" stroke="#fff" stroke-width="2"/>
          <path id="Path_314" data-name="Path 314" d="M492.141,481.988a156.232,156.232,0,0,1-5.774,21.215q-5.221,13.672-11.99,13.672-3.96,0-8.517-4.314a1.1,1.1,0,0,1-.4-.8q0-.664.619-.664a.916.916,0,0,1,.6.243q3.606,3.077,6.437,3.077,5.2,0,9.446-8.672a81.311,81.311,0,0,0,5.819-18.229q.154-.818.508-2.5a79.86,79.86,0,0,1-5.2,7.456,34.3,34.3,0,0,1-4.358,4.867,2.563,2.563,0,0,1-1.416.73,1.238,1.238,0,0,1-.863-.465q-.464-.6-.951-1.173a.79.79,0,0,1-.221-.487V495.9q.044-.268.4-.376,1.062-1.437,1.991-6.217a66.988,66.988,0,0,0,.974-7.145q.044-.8-.2-.8a8.339,8.339,0,0,0-1.039.8,11.116,11.116,0,0,1-1.682,1.305.274.274,0,0,1-.31-.31.475.475,0,0,1,.134-.309q.375-.468,1.681-2.323,1.172-1.659,1.571-1.66a2.05,2.05,0,0,1,.84.268q1.128-.177,1.262-.177.752,0,.752,1.151a48.686,48.686,0,0,1-1.106,7.533,44.987,44.987,0,0,1-1.814,7.245,33.924,33.924,0,0,0,5.752-6.858,34.425,34.425,0,0,0,4.292-7.5q.044-1.482.641-1.482a4.026,4.026,0,0,1,1.726.951Q492.451,480.528,492.141,481.988Z" transform="translate(-436.954 -466.393)" fill="none" stroke="#fff" stroke-width="2"/>
          <path id="Path_315" data-name="Path 315" d="M598.5,480.878q-1.947,3.429-3.539,3.539a3.506,3.506,0,0,1-2.323-1.084,104.4,104.4,0,0,1-16.083-18.162q-.752,2.633-2.589,7.3-1.681,4.247-2.566,6.02-.487.974-.973.974a1.236,1.236,0,0,1-.664-.288q-1.438-1.084-1.438-1.792a2.924,2.924,0,0,1,.268-1.062,28.561,28.561,0,0,0,1.217-3.452q.022-.552.044-1.084a.492.492,0,0,1,.376-.465q.287-.067,1.261,1.416,1.681-3.561,3.761-9.38a7.3,7.3,0,0,1-1.195-2.257q0-.509,2.1-.686.929-2.7,2.035-6.9a45.153,45.153,0,0,0-5.4,2.344,13.427,13.427,0,0,0-4.291,3.518,3.052,3.052,0,0,0-.664,1.947,13.7,13.7,0,0,0,.841,3.384q.243.73-.42.73a.833.833,0,0,1-.708-.442,19.468,19.468,0,0,1-2.035-3.916,6.868,6.868,0,0,1-.531-1.77,3.873,3.873,0,0,1,1.571-2.566,30.842,30.842,0,0,1,12.146-6.437,8.381,8.381,0,0,0,.334-1.571q.177-1.061.531-1.017.419.067,1.349,1.814a30.326,30.326,0,0,1,6.349-1.128q1.991.134,3.077,2.809a7.066,7.066,0,0,1,1.77,1.593,3.826,3.826,0,0,1,.6,2.257q0,2.456-3.01,6.195-3.077,3.827-5.284,3.827a4.582,4.582,0,0,1-2.257-.575l-1.593-1.062a.56.56,0,0,1-.31-.465q0-.575.73-.575a3.266,3.266,0,0,1,.752.188,3.328,3.328,0,0,0,1.017.188q2.19,0,4.955-3.562,2.5-3.185,2.5-5.284,0-2.542-3.54-2.542a17.825,17.825,0,0,0-6.526,1.416,87.257,87.257,0,0,1-2.475,8.7,107.6,107.6,0,0,0,9.9,12.619q5.953,6.5,8.119,6.659a2.725,2.725,0,0,0,1.858-.664,1.191,1.191,0,0,1,.731-.335q.443,0,.443.421A1.355,1.355,0,0,1,598.5,480.878Z" transform="translate(-496.615 -447.717)" fill="none" stroke="#fff" stroke-width="2"/>
          <path id="Path_316" data-name="Path 316" d="M651.592,490.557q-5.376,6.881-7.566,6.88A4.473,4.473,0,0,1,641.394,496q-1.66-.774-1.66-2.08a3.112,3.112,0,0,1,.044-.508,36.8,36.8,0,0,1,1.615-6.7q-.818-.42-.819-.8,0-.31.465-.31a1.558,1.558,0,0,1,.73.2,27.8,27.8,0,0,1,3.539-6.283q1.018-1.239,1.836-1.24a7.127,7.127,0,0,1,1.858.641q-.111-.663.376-.774h1.04q.951,0,.951.335a2.845,2.845,0,0,1-.067.376,2.735,2.735,0,0,0-.067.575q0,.8.022,1.969t.025,1.569q0,2.742-1.5,3.827a5.143,5.143,0,0,1-3.1,1,15.376,15.376,0,0,1-3.01-.487,12.191,12.191,0,0,0-.841,2.676,17.34,17.34,0,0,0-.575,4.469q.021,1.151.73,1.151a2.391,2.391,0,0,0,.686-.134q2.566-.906,7.145-5.531a.83.83,0,0,1,.575-.288q.42,0,.42.4A.811.811,0,0,1,651.592,490.557ZM649,480.779q0-.863-.376-.863a1.4,1.4,0,0,0-.708.354q-2.169,1.748-3.8,6.128.442.067,1.549.134a3.449,3.449,0,0,0,2.676-.819,3.224,3.224,0,0,0,.73-2.19q-.065,1.131-.066-2.741Z" transform="translate(-541.426 -465.961)" fill="none" stroke="#fff" stroke-width="2"/>
          <path id="Path_317" data-name="Path 317" d="M686.2,481.358a13.564,13.564,0,0,1-.951,5.53.78.78,0,0,1-1.239.4q-1.239-.685-1.239-1.128,0-.2.288-.42a9.163,9.163,0,0,0,.685-3.3.9.9,0,0,0-1-1,1.49,1.49,0,0,1-.334-.056,1.568,1.568,0,0,0-.354-.055q-.775,0-1.9,1.46a19,19,0,0,0-2.367,4.557,23.339,23.339,0,0,0-1.239,4.137,11.786,11.786,0,0,0-.243,2.257q0,3.384,2.146,3.318,1.879-.044,5.508-4.712a.943.943,0,0,1,.641-.421c.191,0,.288.118.288.354a1.205,1.205,0,0,1-.11.443A18.032,18.032,0,0,1,681.7,497.8a2.047,2.047,0,0,1-1.637.553,6.551,6.551,0,0,1-1.726-.288,4.98,4.98,0,0,1-3.252-1.305,4.108,4.108,0,0,1-1.217-3.3,22.638,22.638,0,0,1,1.637-6.5,20.9,20.9,0,0,1,3.473-6.549q.841-.929,1.416-.929a6.154,6.154,0,0,1,2.256.973,5.194,5.194,0,0,1,1.793-.334Q686.2,480.119,686.2,481.358Z" transform="translate(-561.886 -466.759)" fill="none" stroke="#fff" stroke-width="2"/>
          <path id="Path_318" data-name="Path 318" d="M713.644,471.394a88.047,88.047,0,0,1-2.765,9.933,15.165,15.165,0,0,0,1.77-2.1.416.416,0,0,1,.31-.2q.354,0,.088.619-.111.244-1.858,3.031a21.99,21.99,0,0,0-1.946,3.761.729.729,0,0,1-.731.508,3.234,3.234,0,0,1-1.437-.508q-.576-.31-.575-.465a1.717,1.717,0,0,1,.243-.575,36.453,36.453,0,0,0,2.655-7.035,39.008,39.008,0,0,0,1.57-7.1q.067-1-.2-1-.2,0-.707.487l-1.372,1.283q-.73.663-.73.067a.806.806,0,0,1,.2-.442,31.2,31.2,0,0,1,2.211-2.765.984.984,0,0,1,.686-.376A2.134,2.134,0,0,1,712.1,469a9.139,9.139,0,0,1,1.128.334,1.237,1.237,0,0,1,.508,1.151A5.4,5.4,0,0,1,713.644,471.394Zm3.119-9.69a.75.75,0,0,1,.354.6q0,.642-1.9,1.991a3.119,3.119,0,0,1-2.433.619,2.887,2.887,0,0,1-1.15-.487.983.983,0,0,1-.232-.276.253.253,0,0,1-.033-.232c.044-.059.134-.074.268-.044a27.113,27.113,0,0,0,2.676-2.542q.509-.575.73-.575a4.584,4.584,0,0,1,1.725.948Z" transform="translate(-581.45 -455.534)" fill="none" stroke="#fff" stroke-width="2"/>
          <path id="Path_319" data-name="Path 319" d="M741.938,476.681a27.129,27.129,0,0,1-1.969,8.031,15.8,15.8,0,0,1-3.144,5.464,2.653,2.653,0,0,1-1.792.819q-1.018,0-3.385-1.637-.464-.31-.464-.641,0-.42.6-.42a2.479,2.479,0,0,1,.709.155,2.489,2.489,0,0,0,.752.155q1.614,0,2.9-2.058a22.831,22.831,0,0,0,2.058-4.757,18.264,18.264,0,0,0,1.017-6.393q-.067-1.283-.863-1.283a2.813,2.813,0,0,0-1.726.973,37.528,37.528,0,0,0-10.088,16.393,58.143,58.143,0,0,0-2.212,10.044q-.022.155-.6,7.676-.088,1.084-.531,1.084-.464,0-1.659-1.084a2.03,2.03,0,0,1-.664-1.947,113.459,113.459,0,0,1,5.331-24.534q3.429-10.575,5.442-13.716,1.195-1.836,2.124-1.792a9.505,9.505,0,0,1,3.54,1.659q.353.222.353.468,0,.335-.53.334a2.894,2.894,0,0,1-.442-.055,2.925,2.925,0,0,0-.465-.056q-1.394,0-2.9,2.367a31.322,31.322,0,0,0-2.235,4.535,49.409,49.409,0,0,0-1.947,5.243,39.691,39.691,0,0,1,7.565-9.114,1.934,1.934,0,0,1,1.2-.575,6.965,6.965,0,0,1,4.029,4.661Z" transform="translate(-590.045 -459.405)" fill="none" stroke="#fff" stroke-width="2"/>
          <path id="Path_320" data-name="Path 320" d="M789.706,490.557q-5.376,6.881-7.566,6.88A4.473,4.473,0,0,1,779.507,496q-1.659-.774-1.659-2.08a3.092,3.092,0,0,1,.044-.508,36.794,36.794,0,0,1,1.615-6.7q-.818-.42-.819-.8,0-.31.465-.31a1.562,1.562,0,0,1,.731.2,27.751,27.751,0,0,1,3.54-6.283q1.018-1.239,1.836-1.24a7.118,7.118,0,0,1,1.858.641q-.111-.663.377-.774h1.04q.951,0,.951.335a2.746,2.746,0,0,1-.067.376,2.756,2.756,0,0,0-.067.575q0,.8.022,1.969t.023,1.571q0,2.742-1.5,3.827a5.143,5.143,0,0,1-3.1,1,15.385,15.385,0,0,1-3.01-.487,12.207,12.207,0,0,0-.841,2.676,17.321,17.321,0,0,0-.575,4.469q.022,1.151.73,1.151a2.393,2.393,0,0,0,.687-.134q2.565-.906,7.145-5.53a.83.83,0,0,1,.575-.288q.42,0,.42.4A.812.812,0,0,1,789.706,490.557Zm-2.589-9.778q0-.863-.376-.863a1.4,1.4,0,0,0-.708.354q-2.169,1.748-3.8,6.128.443.067,1.548.134a3.449,3.449,0,0,0,2.675-.819,3.223,3.223,0,0,0,.73-2.19q-.064,1.131-.065-2.741Z" transform="translate(-624.221 -465.961)" fill="none" stroke="#fff" stroke-width="2"/>
        </g>
      </g>
    </g>
  </g>
</svg>
